<svg width="454" height="454" viewBox="0 0 454 454" fill="none" xmlns="http://www.w3.org/2000/svg">
<circle cx="227" cy="227" r="227" fill="#FF902E" fill-opacity="0.1"/>
<circle cx="227" cy="227" r="177" fill="#FF902E"/>
<path d="M217.208 302.125V283.542H291.542V217.571C291.542 199.452 285.231 184.082 272.61 171.461C259.989 158.84 244.619 152.529 226.5 152.529C208.381 152.529 193.011 158.84 180.39 171.461C167.769 184.082 161.458 199.452 161.458 217.571V274.25H152.167C147.056 274.25 142.681 272.43 139.042 268.791C135.403 265.152 133.583 260.777 133.583 255.667V237.083C133.583 233.831 134.396 230.773 136.022 227.908C137.648 225.043 139.933 222.759 142.875 221.055L143.572 208.744C144.811 198.213 147.869 188.457 152.747 179.475C157.625 170.493 163.743 162.673 171.098 156.014C178.454 149.355 186.894 144.167 196.418 140.45C205.942 136.733 215.969 134.875 226.5 134.875C237.031 134.875 247.019 136.733 256.466 140.45C265.912 144.167 274.352 149.316 281.785 155.897C289.219 162.479 295.336 170.261 300.136 179.243C304.937 188.225 308.034 197.981 309.428 208.511L310.125 220.591C313.067 221.984 315.352 224.075 316.978 226.863C318.604 229.65 319.417 232.592 319.417 235.69V257.06C319.417 260.158 318.604 263.1 316.978 265.888C315.352 268.675 313.067 270.766 310.125 272.159V283.542C310.125 288.652 308.305 293.027 304.666 296.666C301.027 300.305 296.652 302.125 291.542 302.125H217.208ZM198.625 237.083C195.992 237.083 193.786 236.193 192.005 234.412C190.224 232.631 189.333 230.424 189.333 227.792C189.333 225.159 190.224 222.952 192.005 221.171C193.786 219.39 195.992 218.5 198.625 218.5C201.258 218.5 203.464 219.39 205.245 221.171C207.026 222.952 207.917 225.159 207.917 227.792C207.917 230.424 207.026 232.631 205.245 234.412C203.464 236.193 201.258 237.083 198.625 237.083ZM254.375 237.083C251.742 237.083 249.536 236.193 247.755 234.412C245.974 232.631 245.083 230.424 245.083 227.792C245.083 225.159 245.974 222.952 247.755 221.171C249.536 219.39 251.742 218.5 254.375 218.5C257.008 218.5 259.214 219.39 260.995 221.171C262.776 222.952 263.667 225.159 263.667 227.792C263.667 230.424 262.776 232.631 260.995 234.412C259.214 236.193 257.008 237.083 254.375 237.083ZM170.982 222.681C169.898 206.266 174.854 192.174 185.849 180.404C196.844 168.635 210.549 162.75 226.965 162.75C240.747 162.75 252.865 167.125 263.318 175.874C273.771 184.624 280.082 195.813 282.25 209.441C268.158 209.286 255.188 205.492 243.341 198.058C231.494 190.625 222.396 180.559 216.047 167.86C213.569 180.249 208.343 191.283 200.367 200.962C192.392 210.641 182.597 217.881 170.982 222.681Z" fill="white"/>
</svg>
