<svg width="512" height="410" viewBox="0 0 512 410" fill="none" xmlns="http://www.w3.org/2000/svg">
<g clip-path="url(#clip0_136_3)">
<path d="M254.746 212.264C312.721 212.264 359.72 165.265 359.72 107.29C359.72 49.3142 312.721 2.31567 254.746 2.31567C196.77 2.31567 149.771 49.3142 149.771 107.29C149.771 165.265 196.77 212.264 254.746 212.264Z" fill="white"/>
<mask id="mask0_136_3" style="mask-type:luminance" maskUnits="userSpaceOnUse" x="187" y="42" width="139" height="128">
<path d="M325.103 42.6868H187.827V169.577H325.103V42.6868Z" fill="white"/>
</mask>
<g mask="url(#mask0_136_3)">
<path d="M291.748 169.414C291.748 161.087 291.748 152.994 291.748 144.901C291.725 129.207 282.392 116.997 266.908 114.12C255.751 112.062 244.337 111.875 234.256 118.751C225.812 124.529 220.854 132.341 220.854 142.82C220.854 151.591 220.854 160.339 220.854 169.578C212.62 164.572 205.978 158.467 200.621 150.959C191.031 137.58 186.938 122.611 187.991 106.261C190.33 69.96 219.778 46.0554 249.085 43.0381C282.673 39.5764 315.326 61.7735 323.348 96.1099C330.716 127.663 313.899 156.807 291.748 169.391V169.414ZM256.359 66.8257C245.857 66.7555 237.741 75.0122 237.648 85.7949C237.554 95.6889 245.928 103.641 256.336 103.805C267.353 103.969 274.604 94.9638 274.978 86.1926C275.469 75.1057 267.236 66.8959 256.359 66.8257Z" fill="#2A37EA"/>
</g>
<path d="M359.416 97.5121C359.416 97.5121 359.3 97.6057 359.253 97.6524C357.078 99.547 354.855 101.465 352.563 103.383C332.962 119.849 309.619 136.69 283.727 152.642C254.092 170.886 224.901 185.599 198.704 196.077C147.878 216.427 108.209 220.871 98.0339 204.311C87.8827 187.821 109.542 154.584 150.357 118.469C150.778 122.516 151.433 126.469 152.322 130.352C127.482 155.332 115.413 177.295 122.687 189.13C129.985 200.966 155.176 200.054 188.857 189.014C215.311 180.359 246.981 165.436 279.329 145.532C300.942 132.246 320.379 118.236 336.798 104.506C344.4 98.167 351.324 91.8751 357.499 85.7703L357.615 85.6534C383.532 60.0414 396.232 37.3766 388.818 25.3307C381.403 13.3083 355.557 14.431 321.08 25.9389C318.016 23.4362 314.765 21.0972 311.42 18.9453C362.902 -1.89515 403.226 -6.57314 413.494 10.1273C423.809 26.8745 401.355 60.8367 359.416 97.5121Z" fill="#FF902E"/>
</g>
<path fill-rule="evenodd" clip-rule="evenodd" d="M104.214 260.895L82.9135 326.118H66.6678L52.3474 281.954L38.8695 322.147L32.9729 303.735C32.4915 302.05 32.4915 300.486 32.9729 298.801L43.9237 266.31C45.0068 263.061 47.8949 261.015 51.3847 261.015H54.0322C57.522 261.015 60.4101 263.181 61.4932 266.43L74.6101 307.225L87.9678 266.43C89.0508 263.181 91.9389 261.015 95.4288 261.015H104.214V260.895ZM36.583 326.118C30.2051 306.142 23.8271 286.286 17.4491 266.31C16.3661 263.061 13.478 260.895 9.98813 260.895H0L21.4203 326.118H36.583Z" fill="white"/>
<path fill-rule="evenodd" clip-rule="evenodd" d="M130.442 275.789C127.915 281.926 125.87 286.86 124.185 290.951C123.222 293.238 121.417 294.802 119.01 295.524C112.753 297.209 107.819 300.458 103.607 304.79L123.102 260.987H138.024L157.759 305.151C153.427 300.699 148.373 297.329 141.875 295.524C139.468 294.802 137.663 293.238 136.7 290.951C135.136 286.86 133.09 281.926 130.442 275.789ZM94.1001 326.09H104.81C107.578 326.09 109.985 324.767 111.429 322.36C115.52 315.862 122.62 311.77 130.563 311.77C138.505 311.77 145.605 315.741 149.697 322.36C151.141 324.767 153.548 326.09 156.315 326.09H167.025C158.963 307.919 149.336 297.329 130.563 297.329C111.79 297.329 102.163 307.919 94.1001 326.09Z" fill="white"/>
<path fill-rule="evenodd" clip-rule="evenodd" d="M192.169 304.911V318.268C192.169 322.601 188.679 326.09 184.347 326.09H177.127V302.865L151.855 260.987H163.408C166.176 260.987 168.703 262.311 170.147 264.838L191.327 301.421C191.928 302.504 192.169 303.587 192.169 304.911ZM189.522 282.889C188.077 285.296 187.957 288.063 189.281 290.59L194.094 299.857L217.44 260.987H207.091C204.323 260.987 201.796 262.311 200.352 264.838L189.522 282.889Z" fill="white"/>
<path fill-rule="evenodd" clip-rule="evenodd" d="M356.675 260.888L335.375 326.112H319.129L304.809 281.948L291.331 322.141L285.434 303.729C284.953 302.044 284.953 300.48 285.434 298.795L296.385 266.063C297.468 262.814 300.356 260.768 303.846 260.768H306.494C309.983 260.768 312.872 262.934 313.955 266.183L327.072 306.978L340.429 266.183C341.512 262.934 344.4 260.768 347.89 260.768H356.675V260.888ZM289.044 326.112C282.667 306.136 276.289 286.28 269.911 266.304C268.828 263.055 265.939 260.888 262.45 260.888H252.461L273.882 326.112H289.044Z" fill="white"/>
<path fill-rule="evenodd" clip-rule="evenodd" d="M420.339 326.122C415.405 326.122 410.591 325.4 405.898 324.076C401.205 322.752 397.474 320.947 394.707 318.781L396.271 315.291C397.956 311.561 402.288 309.876 406.139 311.44C407.101 311.922 408.184 312.283 409.268 312.644C412.998 313.847 416.729 314.449 420.459 314.449C424.551 314.449 427.679 313.847 429.605 312.644C431.53 311.44 432.613 309.756 432.613 307.71C432.613 306.266 432.012 304.942 430.808 303.979C429.605 303.017 428.161 302.174 426.356 301.573C424.551 300.971 422.023 300.369 418.895 299.647C414.081 298.564 410.11 297.361 407.101 296.278C404.093 295.195 401.445 293.269 399.279 290.742C397.956 289.298 397.113 287.493 396.512 285.447C395.91 283.161 396.391 280.874 397.835 278.949C399.279 277.023 401.446 276.061 403.852 276.061H411.915C410.952 277.144 410.471 278.467 410.471 280.032C410.471 282.198 411.554 283.762 413.84 284.845C416.127 285.928 419.496 286.891 424.19 287.974C429.003 289.057 432.974 290.261 435.983 291.344C438.991 292.427 441.639 294.232 443.805 296.759C445.971 299.166 447.054 302.535 447.054 306.747C447.054 310.357 446.091 313.606 444.045 316.615C442 319.623 438.991 321.91 435.02 323.715C431.049 325.279 426.115 326.122 420.339 326.122ZM397.835 272.691H422.505C426.115 272.691 429.725 273.293 433.456 274.617C437.306 275.94 441.518 274.135 442.962 270.284L444.527 266.554C441.639 264.749 438.269 263.425 434.418 262.462C430.568 261.5 426.596 261.018 422.625 261.018C416.849 261.018 412.035 261.861 407.944 263.666C403.973 265.351 400.964 267.757 399.039 270.766C398.557 271.247 398.076 271.969 397.835 272.691Z" fill="white"/>
<path fill-rule="evenodd" clip-rule="evenodd" d="M376.053 260.889H383.274V318.29C383.274 322.623 379.784 326.112 375.452 326.112H368.231V268.711C368.231 264.499 371.721 260.889 376.053 260.889Z" fill="white"/>
<path fill-rule="evenodd" clip-rule="evenodd" d="M511.549 314.088V326.242H461.127V310.117C461.127 305.784 464.617 302.295 468.949 302.295H476.169V314.088H511.549ZM461.006 298.925V295.074C461.006 290.742 464.496 287.252 468.828 287.252C479.779 287.252 488.323 287.252 500.718 287.252V291.223C500.718 295.556 497.228 299.045 492.896 299.045C481.945 298.925 473.401 298.925 461.006 298.925ZM461.006 283.883V261.018H510.225V265.351C510.225 269.683 506.735 273.173 502.403 273.173H475.928V276.181C475.928 280.513 472.439 284.003 468.106 284.003H461.006V283.883Z" fill="white"/>
<path d="M243.194 294.333H224.3V300.47H243.194V294.333Z" fill="white"/>
<path d="M186.017 395.493C183.115 395.493 180.487 394.944 178.134 393.846C175.781 392.708 173.937 391.159 172.604 389.198C171.27 387.198 170.604 384.982 170.604 382.55C170.604 381.021 171.231 379.942 172.486 379.315C173.78 378.687 175.545 378.373 177.781 378.373C177.663 379.001 177.604 379.844 177.604 380.903C177.604 383.57 178.33 385.629 179.781 387.08C181.232 388.531 183.311 389.257 186.017 389.257C188.684 389.257 190.743 388.492 192.194 386.963C193.685 385.433 194.43 383.237 194.43 380.374V359.959H188.076C184.742 359.959 183.076 357.9 183.076 353.782H198.077C199.058 353.782 199.881 354.096 200.548 354.724C201.215 355.351 201.548 356.116 201.548 357.018V380.374C201.548 383.276 200.882 385.884 199.548 388.198C198.215 390.473 196.371 392.257 194.018 393.552C191.665 394.846 188.998 395.493 186.017 395.493ZM231.564 395.493C228.348 395.493 225.407 394.846 222.74 393.552C220.112 392.257 218.033 390.512 216.504 388.316C214.974 386.119 214.209 383.707 214.209 381.08V367.607C214.209 364.98 214.954 362.568 216.445 360.371C217.974 358.175 220.053 356.449 222.681 355.194C225.348 353.9 228.309 353.253 231.564 353.253C234.82 353.253 237.761 353.9 240.389 355.194C243.056 356.449 245.135 358.175 246.625 360.371C248.154 362.568 248.919 364.98 248.919 367.607V381.08C248.919 383.707 248.154 386.119 246.625 388.316C245.095 390.512 242.997 392.257 240.33 393.552C237.702 394.846 234.78 395.493 231.564 395.493ZM231.564 389.316C234.702 389.316 237.192 388.551 239.036 387.022C240.918 385.492 241.86 383.472 241.86 380.962V367.725C241.86 365.215 240.918 363.215 239.036 361.724C237.192 360.195 234.702 359.43 231.564 359.43C228.427 359.43 225.917 360.195 224.034 361.724C222.191 363.215 221.269 365.215 221.269 367.725V380.962C221.269 383.472 222.191 385.492 224.034 387.022C225.917 388.551 228.427 389.316 231.564 389.316ZM265.623 394.964C264.642 394.964 263.799 394.65 263.093 394.022C262.387 393.356 262.034 392.571 262.034 391.669V357.018C262.034 356.116 262.367 355.351 263.034 354.724C263.74 354.096 264.603 353.782 265.623 353.782H281.566C285.252 353.782 288.174 354.822 290.331 356.9C292.528 358.979 293.626 361.764 293.626 365.254C293.626 366.98 293.155 368.627 292.214 370.196C291.312 371.726 290.096 372.902 288.566 373.726V373.902C290.684 374.569 292.332 375.726 293.508 377.373C294.724 378.981 295.332 380.844 295.332 382.962C295.332 385.315 294.802 387.414 293.744 389.257C292.685 391.061 291.214 392.473 289.331 393.493C287.449 394.473 285.292 394.964 282.86 394.964H265.623ZM281.448 371.373C282.86 371.373 284.056 370.804 285.037 369.667C286.056 368.529 286.566 367.137 286.566 365.49C286.566 363.725 286.115 362.332 285.213 361.313C284.311 360.293 283.056 359.783 281.448 359.783H268.976V371.373H281.448ZM282.625 388.904C284.389 388.904 285.762 388.394 286.743 387.374C287.762 386.316 288.272 384.884 288.272 383.08C288.272 381.237 287.782 379.825 286.802 378.844C285.821 377.824 284.429 377.314 282.625 377.314H268.976V388.904H282.625ZM324.097 395.493C320.645 395.493 317.645 395.042 315.096 394.14C312.546 393.238 310.585 392.002 309.213 390.434C307.879 388.865 307.212 387.061 307.212 385.021C307.212 381.844 309.213 380.256 313.213 380.256C313.292 383.354 314.272 385.708 316.155 387.316C318.076 388.924 320.763 389.728 324.214 389.728C327.234 389.728 329.568 389.218 331.215 388.198C332.863 387.178 333.686 385.708 333.686 383.786C333.686 382.57 333.372 381.589 332.745 380.844C332.117 380.06 331.058 379.374 329.568 378.785C328.078 378.158 325.921 377.53 323.097 376.903C319.332 376.079 316.351 375.118 314.154 374.02C311.997 372.922 310.429 371.608 309.448 370.078C308.468 368.549 307.977 366.647 307.977 364.372C307.977 362.175 308.624 360.234 309.919 358.548C311.213 356.861 313.037 355.567 315.39 354.665C317.743 353.723 320.469 353.253 323.567 353.253C326.509 353.253 329.156 353.665 331.509 354.488C333.863 355.273 335.706 356.39 337.04 357.842C338.373 359.293 339.04 360.96 339.04 362.842C339.04 365.548 337.138 366.96 333.333 367.078C333.019 364.254 332.078 362.195 330.509 360.901C328.98 359.607 326.666 358.959 323.567 358.959C320.822 358.959 318.704 359.43 317.214 360.371C315.723 361.313 314.978 362.646 314.978 364.372C314.978 365.548 315.253 366.529 315.802 367.313C316.39 368.058 317.351 368.725 318.684 369.314C320.018 369.863 321.94 370.412 324.45 370.961C328.45 371.863 331.627 372.883 333.98 374.02C336.334 375.118 338.02 376.452 339.04 378.02C340.099 379.55 340.628 381.472 340.628 383.786C340.628 386.178 339.942 388.257 338.569 390.022C337.236 391.787 335.314 393.14 332.804 394.081C330.333 395.022 327.431 395.493 324.097 395.493Z" fill="#FF902E"/>
<defs>
<clipPath id="clip0_136_3">
<rect width="320.442" height="214.439" fill="white" transform="translate(95.5537)"/>
</clipPath>
</defs>
</svg>
