<svg width="965" height="217" viewBox="0 0 965 217" fill="none" xmlns="http://www.w3.org/2000/svg">
<g clip-path="url(#clip0_128_295)">
<path d="M159.192 212.264C217.167 212.264 264.166 165.265 264.166 107.289C264.166 49.3139 217.167 2.31543 159.192 2.31543C101.216 2.31543 54.2178 49.3139 54.2178 107.289C54.2178 165.265 101.216 212.264 159.192 212.264Z" fill="#2A37EA"/>
<mask id="mask0_128_295" style="mask-type:luminance" maskUnits="userSpaceOnUse" x="92" y="42" width="138" height="128">
<path d="M229.549 42.6865H92.2734V169.577H229.549V42.6865Z" fill="white"/>
</mask>
<g mask="url(#mask0_128_295)">
<path d="M196.195 169.414C196.195 161.087 196.195 152.994 196.195 144.901C196.172 129.207 186.839 116.997 171.355 114.12C160.198 112.062 148.784 111.875 138.703 118.751C130.259 124.529 125.3 132.341 125.3 142.82C125.3 151.591 125.3 160.339 125.3 169.578C117.067 164.572 110.424 158.467 105.068 150.959C95.4782 137.58 91.3849 122.611 92.4375 106.261C94.7765 69.96 124.224 46.0554 153.532 43.0381C187.12 39.5764 219.772 61.7735 227.795 96.1099C235.163 127.663 218.346 156.807 196.195 169.391V169.414ZM160.806 66.8257C150.304 66.7555 142.188 75.0122 142.094 85.7949C142.001 95.6889 150.374 103.641 160.783 103.805C171.8 103.969 179.05 94.9638 179.425 86.1926C179.916 75.1057 171.683 66.8959 160.806 66.8257Z" fill="white"/>
</g>
<path d="M263.862 97.5121C263.862 97.5121 263.745 97.6057 263.699 97.6524C261.523 99.547 259.301 101.465 257.009 103.383C237.408 119.849 214.065 136.69 188.172 152.642C158.537 170.886 129.347 185.599 103.15 196.077C52.3237 216.427 12.6543 220.871 2.47969 204.311C-7.67155 187.821 13.9875 154.584 54.803 118.469C55.224 122.516 55.8789 126.469 56.7677 130.352C31.9276 155.332 19.8584 177.295 27.1327 189.13C34.4304 200.966 59.6213 200.054 93.3028 189.014C119.757 180.359 151.427 165.436 183.775 145.532C205.387 132.246 224.824 118.236 241.244 104.506C248.846 98.167 255.769 91.8751 261.944 85.7703L262.061 85.6534C287.977 60.0414 300.678 37.3766 293.263 25.3307C285.849 13.3083 260.003 14.431 225.526 25.9389C222.462 23.4362 219.211 21.0972 215.866 18.9453C267.347 -1.89515 307.672 -6.57314 317.94 10.1273C328.255 26.8745 305.8 60.8367 263.862 97.5121Z" fill="#FF902E"/>
</g>
<path fill-rule="evenodd" clip-rule="evenodd" d="M489.171 42.583L464.313 118.702H445.353L428.641 67.1602L412.911 114.067L406.03 92.5799C405.468 90.6137 405.468 88.788 406.03 86.8218L418.81 48.9029C420.074 45.111 423.444 42.7234 427.517 42.7234H430.607C434.68 42.7234 438.05 45.2514 439.314 49.0433L454.622 96.6527L470.211 49.0433C471.475 45.2514 474.846 42.7234 478.918 42.7234H489.171V42.583ZM410.243 118.702C402.799 95.3887 395.356 72.216 387.913 48.9029C386.649 45.111 383.278 42.583 379.205 42.583H367.549L392.547 118.702H410.243Z" fill="black"/>
<path fill-rule="evenodd" clip-rule="evenodd" d="M519.781 59.9651C516.832 67.1276 514.445 72.8857 512.478 77.6607C511.355 80.3291 509.248 82.1548 506.439 82.9975C499.136 84.9636 493.378 88.7555 488.463 93.8114L511.214 42.6909H528.629L551.661 94.2327C546.605 89.0364 540.707 85.1041 533.123 82.9975C530.314 82.1548 528.208 80.3291 527.084 77.6607C525.258 72.8857 522.871 67.1276 519.781 59.9651ZM477.368 118.669H489.867C493.098 118.669 495.906 117.125 497.592 114.316C502.367 106.732 510.653 101.957 519.922 101.957C529.191 101.957 537.477 106.592 542.252 114.316C543.937 117.125 546.746 118.669 549.976 118.669H562.475C553.066 97.4628 541.831 85.1041 519.922 85.1041C498.013 85.1041 486.778 97.4628 477.368 118.669Z" fill="black"/>
<path fill-rule="evenodd" clip-rule="evenodd" d="M591.818 93.9518V109.541C591.818 114.597 587.745 118.669 582.69 118.669H574.263V91.5643L544.771 42.6909H558.253C561.483 42.6909 564.432 44.2358 566.118 47.185L590.835 89.879C591.537 91.143 591.818 92.407 591.818 93.9518ZM588.729 68.2511C587.043 71.06 586.903 74.2901 588.448 77.2394L594.065 88.0533L621.311 42.6909H609.233C606.003 42.6909 603.053 44.2358 601.368 47.185L588.729 68.2511Z" fill="black"/>
<path fill-rule="evenodd" clip-rule="evenodd" d="M783.804 42.576L758.946 118.695H739.987L723.274 67.1532L707.545 114.06L700.663 92.5729C700.102 90.6068 700.102 88.781 700.663 86.8149L713.444 48.615C714.707 44.8231 718.078 42.4355 722.151 42.4355H725.241C729.313 42.4355 732.684 44.9635 733.948 48.7554L749.256 96.3648L764.845 48.7554C766.109 44.9635 769.479 42.4355 773.552 42.4355H783.804V42.576ZM704.877 118.695C697.433 95.3818 689.99 72.209 682.547 48.8959C681.283 45.104 677.912 42.576 673.839 42.576H662.183L687.181 118.695H704.877Z" fill="black"/>
<path fill-rule="evenodd" clip-rule="evenodd" d="M858.102 118.706C852.344 118.706 846.727 117.863 841.249 116.318C835.772 114.773 831.419 112.667 828.188 110.139L830.014 106.066C831.98 101.712 837.036 99.7461 841.53 101.572C842.654 102.134 843.918 102.555 845.182 102.976C849.535 104.381 853.889 105.083 858.243 105.083C863.018 105.083 866.669 104.381 868.916 102.976C871.163 101.572 872.427 99.6056 872.427 97.2181C872.427 95.5328 871.725 93.9879 870.321 92.8644C868.916 91.7409 867.231 90.7579 865.124 90.0556C863.018 89.3534 860.069 88.6512 856.417 87.8086C850.799 86.5446 846.165 85.1402 842.654 83.8762C839.143 82.6123 836.053 80.3652 833.525 77.416C831.98 75.7307 830.997 73.6241 830.295 71.2366C829.593 68.5682 830.155 65.8998 831.84 63.6528C833.525 61.4057 836.053 60.2822 838.862 60.2822H848.272C847.148 61.5461 846.586 63.091 846.586 64.9167C846.586 67.4447 847.85 69.2704 850.519 70.5343C853.187 71.7983 857.119 72.9219 862.596 74.1858C868.214 75.4498 872.849 76.8542 876.36 78.1181C879.871 79.3821 882.96 81.4887 885.488 84.438C888.016 87.2468 889.28 91.1791 889.28 96.0946C889.28 100.308 888.157 104.1 885.769 107.611C883.382 111.122 879.871 113.79 875.236 115.897C870.602 117.722 864.844 118.706 858.102 118.706ZM831.84 56.3498H860.63C864.844 56.3498 869.057 57.052 873.41 58.5969C877.905 60.1417 882.82 58.0351 884.505 53.541L886.331 49.1874C882.96 47.0808 879.028 45.5359 874.534 44.4124C870.04 43.2889 865.405 42.7271 860.771 42.7271C854.03 42.7271 848.412 43.7102 843.637 45.8168C839.002 47.7829 835.491 50.5918 833.244 54.1028C832.683 54.6645 832.121 55.5072 831.84 56.3498Z" fill="black"/>
<path fill-rule="evenodd" clip-rule="evenodd" d="M806.421 42.5752H814.847V109.565C814.847 114.621 810.774 118.694 805.718 118.694H797.292V51.7038C797.292 46.7884 801.365 42.5752 806.421 42.5752Z" fill="black"/>
<path fill-rule="evenodd" clip-rule="evenodd" d="M964.549 104.661V118.846H905.704V100.027C905.704 94.9711 909.777 90.8983 914.833 90.8983H923.259V104.661H964.549ZM905.563 86.9659V82.4718C905.563 77.416 909.636 73.3432 914.692 73.3432C927.472 73.3432 937.444 73.3432 951.909 73.3432V77.9777C951.909 83.0336 947.836 87.1064 942.78 87.1064C930 86.9659 920.029 86.9659 905.563 86.9659ZM905.563 69.4108V42.7271H963.004V47.7829C963.004 52.8388 958.931 56.9116 953.875 56.9116H922.978V60.4226C922.978 65.4785 918.905 69.5513 913.849 69.5513H905.563V69.4108Z" fill="black"/>
<path d="M651.367 81.6064H629.317V88.769H651.367V81.6064Z" fill="black"/>
<path d="M596.292 189.387C593.389 189.387 590.762 188.838 588.408 187.74C586.055 186.603 584.212 185.054 582.878 183.093C581.545 181.092 580.878 178.876 580.878 176.445C580.878 174.915 581.506 173.837 582.761 173.209C584.055 172.581 585.82 172.268 588.055 172.268C587.938 172.895 587.879 173.738 587.879 174.797C587.879 177.464 588.604 179.523 590.056 180.975C591.507 182.426 593.585 183.151 596.292 183.151C598.959 183.151 601.018 182.387 602.469 180.857C603.959 179.327 604.704 177.131 604.704 174.268V153.854H598.351C595.017 153.854 593.35 151.795 593.35 147.677H608.352C609.332 147.677 610.156 147.99 610.823 148.618C611.49 149.245 611.823 150.01 611.823 150.912V174.268C611.823 177.17 611.156 179.778 609.823 182.092C608.489 184.367 606.646 186.152 604.293 187.446C601.939 188.74 599.272 189.387 596.292 189.387ZM641.839 189.387C638.623 189.387 635.681 188.74 633.014 187.446C630.387 186.152 628.308 184.406 626.778 182.21C625.249 180.014 624.484 177.602 624.484 174.974V161.502C624.484 158.874 625.229 156.462 626.719 154.266C628.249 152.069 630.328 150.344 632.955 149.089C635.622 147.794 638.584 147.147 641.839 147.147C645.094 147.147 648.036 147.794 650.663 149.089C653.33 150.344 655.409 152.069 656.899 154.266C658.429 156.462 659.194 158.874 659.194 161.502V174.974C659.194 177.602 658.429 180.014 656.899 182.21C655.37 184.406 653.272 186.152 650.605 187.446C647.977 188.74 645.055 189.387 641.839 189.387ZM641.839 183.21C644.976 183.21 647.467 182.445 649.31 180.916C651.193 179.386 652.134 177.366 652.134 174.856V161.619C652.134 159.109 651.193 157.109 649.31 155.619C647.467 154.089 644.976 153.324 641.839 153.324C638.701 153.324 636.191 154.089 634.309 155.619C632.465 157.109 631.544 159.109 631.544 161.619V174.856C631.544 177.366 632.465 179.386 634.309 180.916C636.191 182.445 638.701 183.21 641.839 183.21ZM675.897 188.858C674.917 188.858 674.073 188.544 673.367 187.917C672.661 187.25 672.308 186.465 672.308 185.563V150.912C672.308 150.01 672.642 149.245 673.309 148.618C674.015 147.99 674.877 147.677 675.897 147.677H691.84C695.527 147.677 698.449 148.716 700.606 150.795C702.802 152.873 703.9 155.658 703.9 159.149C703.9 160.874 703.43 162.521 702.488 164.09C701.586 165.62 700.371 166.796 698.841 167.62V167.797C700.959 168.463 702.606 169.62 703.783 171.268C704.999 172.876 705.606 174.739 705.606 176.856C705.606 179.21 705.077 181.308 704.018 183.151C702.959 184.955 701.488 186.367 699.606 187.387C697.723 188.368 695.566 188.858 693.134 188.858H675.897ZM691.723 165.267C693.134 165.267 694.331 164.698 695.311 163.561C696.331 162.423 696.841 161.031 696.841 159.384C696.841 157.619 696.39 156.227 695.488 155.207C694.586 154.187 693.331 153.677 691.723 153.677H679.25V165.267H691.723ZM692.899 182.798C694.664 182.798 696.037 182.289 697.017 181.269C698.037 180.21 698.547 178.778 698.547 176.974C698.547 175.131 698.057 173.719 697.076 172.738C696.096 171.719 694.703 171.209 692.899 171.209H679.25V182.798H692.899ZM734.371 189.387C730.92 189.387 727.92 188.936 725.37 188.034C722.821 187.132 720.86 185.897 719.487 184.328C718.154 182.759 717.487 180.955 717.487 178.916C717.487 175.739 719.487 174.15 723.488 174.15C723.566 177.249 724.547 179.602 726.429 181.21C728.351 182.818 731.038 183.622 734.489 183.622C737.509 183.622 739.843 183.112 741.49 182.092C743.137 181.073 743.961 179.602 743.961 177.68C743.961 176.464 743.647 175.484 743.019 174.739C742.392 173.954 741.333 173.268 739.843 172.68C738.352 172.052 736.195 171.424 733.371 170.797C729.606 169.973 726.625 169.012 724.429 167.914C722.272 166.816 720.703 165.502 719.723 163.973C718.742 162.443 718.252 160.541 718.252 158.266C718.252 156.07 718.899 154.128 720.193 152.442C721.487 150.755 723.311 149.461 725.664 148.559C728.018 147.618 730.743 147.147 733.842 147.147C736.783 147.147 739.431 147.559 741.784 148.383C744.137 149.167 745.981 150.285 747.314 151.736C748.648 153.187 749.314 154.854 749.314 156.736C749.314 159.443 747.412 160.855 743.608 160.972C743.294 158.148 742.353 156.089 740.784 154.795C739.254 153.501 736.94 152.854 733.842 152.854C731.096 152.854 728.979 153.324 727.488 154.266C725.998 155.207 725.253 156.54 725.253 158.266C725.253 159.443 725.527 160.423 726.076 161.208C726.665 161.953 727.625 162.62 728.959 163.208C730.292 163.757 732.214 164.306 734.724 164.855C738.725 165.757 741.902 166.777 744.255 167.914C746.608 169.012 748.295 170.346 749.314 171.915C750.373 173.444 750.903 175.366 750.903 177.68C750.903 180.073 750.216 182.151 748.844 183.916C747.51 185.681 745.588 187.034 743.078 187.975C740.607 188.917 737.705 189.387 734.371 189.387Z" fill="#FF902E"/>
<defs>
<clipPath id="clip0_128_295">
<rect width="320.442" height="214.439" fill="white"/>
</clipPath>
</defs>
</svg>
